<?xml version="1.0" encoding="UTF-8"?>
<svg width="140px" height="80px" viewBox="0 0 140 80" version="1.1" xmlns="http://www.w3.org/2000/svg" xmlns:xlink="http://www.w3.org/1999/xlink">
    <!-- Generator: Sketch 58 (84663) - https://sketch.com -->
    <title>Ents</title>
    <desc>Created with Sketch.</desc>
    <defs>
        <polygon id="path-1" points="0 0.0771446643 139.999986 0.0771446643 139.999986 79.0309429 0 79.0309429"></polygon>
    </defs>
    <g id="Page-1" stroke="none" stroke-width="1" fill="none" fill-rule="evenodd">
        <g id="Home-v1" transform="translate(-132.000000, -714.000000)">
            <g id="Ents" transform="translate(132.000000, 714.000000)">
                <g id="Group-3" transform="translate(0.000000, 0.060581)">
                    <mask id="mask-2" fill="white">
                        <use xlink:href="#path-1"></use>
                    </mask>
                    <g id="Clip-2"></g>
                    <path d="M-1.3671875e-05,30.7813544 C4.83244727,30.7813544 8.74998633,34.7089444 8.74998633,39.5540644 C8.74998633,44.3990467 4.83244727,48.3266368 -1.3671875e-05,48.3266368 L-1.3671875e-05,79.0309842 L139.999986,79.0309842 L139.999986,48.3288397 C135.169713,48.3262237 131.254635,44.3998728 131.254635,39.5564051 C131.254635,34.7129373 135.169713,30.7864487 139.999986,30.7839704 L139.999986,0.0771446643 L-1.3671875e-05,0.0771446643 L-1.3671875e-05,30.7813544 Z" id="Fill-1" fill="#F0A000" mask="url(#mask-2)"></path>
                </g>
                <path d="M117.263221,48.202762 L22.7366973,48.202762 C22.523416,48.202762 22.3504668,48.0284533 22.3504668,47.8136654 L22.3504668,31.3646275 C22.3504668,31.1497019 22.523416,30.9755309 22.7366973,30.9755309 L117.263221,30.9755309 C117.476639,30.9755309 117.649588,31.1497019 117.649588,31.3646275 L117.649588,47.8136654 C117.649588,48.0284533 117.476639,48.202762 117.263221,48.202762" id="Fill-4" fill="#FEFEFE"></path>
                <path d="M34.3933652,42.5650883 C34.7210801,42.5650883 34.8855527,42.7348533 34.8855527,43.0730067 C34.8855527,43.4202471 34.7210801,43.593592 34.3933652,43.593592 L29.5710215,43.593592 C29.3822129,43.593592 29.2367441,43.549946 29.1340684,43.4633424 C29.0313926,43.3767388 28.9805332,43.2387789 28.9805332,43.0486365 L28.9805332,35.5406969 C28.9805332,35.3506922 29.0313926,35.2123192 29.1340684,35.1255779 C29.2367441,35.0388367 29.3822129,34.9957414 29.5710215,34.9957414 L34.3933652,34.9957414 C34.7210801,34.9957414 34.8855527,35.1650934 34.8855527,35.5036598 C34.8855527,35.8503495 34.7210801,36.0238321 34.3933652,36.0238321 L30.161373,36.0238321 L30.161373,38.6874777 L34.1351035,38.6874777 C34.4628184,38.6874777 34.6268809,38.8566921 34.6268809,39.1953961 C34.6268809,39.5424989 34.4628184,39.7158438 34.1351035,39.7158438 L30.161373,39.7158438 L30.161373,42.5650883 L34.3933652,42.5650883 Z" id="Fill-6" fill="#F0A000"></path>
                <path d="M37.0136484,43.6802782 C36.636168,43.6802782 36.4479062,43.5028028 36.4479062,43.1475766 L36.4479062,37.7953643 C36.4479062,37.605635 36.4887852,37.4693273 36.5708164,37.3867165 C36.6528477,37.3041058 36.7921641,37.2626627 36.9890391,37.2626627 C37.1938437,37.2626627 37.3373984,37.3041058 37.4198398,37.3867165 C37.5014609,37.4693273 37.54275,37.605635 37.54275,37.7953643 L37.54275,38.2910288 C37.7394883,37.9195558 38.0183945,37.6345488 38.3791953,37.4364207 C38.7401328,37.2377418 39.1543906,37.1388843 39.6219687,37.1388843 C40.3185508,37.1388843 40.8581797,37.3290267 41.239625,37.7086231 C41.6206602,38.0887702 41.8113828,38.6295952 41.8113828,39.3317865 L41.8113828,43.1475766 C41.8113828,43.5028028 41.6187461,43.6802782 41.2331992,43.6802782 C40.8559922,43.6802782 40.6673203,43.5028028 40.6673203,43.1475766 L40.6673203,39.6539683 C40.6673203,39.1416441 40.5627305,38.7700334 40.3538242,38.538861 C40.1443711,38.3076886 39.8061289,38.1917582 39.3385508,38.1917582 C38.797418,38.1917582 38.3711289,38.4025533 38.0591367,38.8238681 C37.7475547,39.2450452 37.5919687,39.8193275 37.5919687,40.5456136 L37.5919687,43.1475766 C37.5919687,43.5028028 37.3991953,43.6802782 37.0136484,43.6802782" id="Fill-8" fill="#F0A000"></path>
                <path d="M45.6498301,43.7917476 C44.5344785,43.7917476 43.9768027,43.2427993 43.9768027,42.1439387 L43.9768027,38.3032276 L43.4356699,38.3032276 C43.2877402,38.3032276 43.1809629,38.2661905 43.1154746,38.1918408 C43.0497129,38.1177665 43.0173105,37.9935751 43.0173105,37.8202302 C43.0173105,37.506447 43.1563535,37.349349 43.4356699,37.349349 L43.9768027,37.349349 L43.9768027,36.08568 C43.9768027,35.9371183 43.9929355,35.8235286 44.0260215,35.7450483 C44.058834,35.6668435 44.1202207,35.598552 44.2103184,35.5407244 C44.3663145,35.4414539 44.5425449,35.3921628 44.7392832,35.3921628 C44.9935801,35.3921628 45.1207285,35.5203471 45.1207285,35.7758897 L45.1207285,37.349349 L46.2527598,37.349349 C46.5312559,37.349349 46.6709824,37.506447 46.6709824,37.8202302 C46.6709824,37.9935751 46.6378965,38.1177665 46.5724082,38.1918408 C46.5069199,38.2661905 46.4002793,38.3032276 46.2527598,38.3032276 L45.1207285,38.3032276 L45.1207285,41.8963819 C45.1207285,42.2265495 45.170084,42.4560696 45.268248,42.5839786 C45.366959,42.7120252 45.5431895,42.7759109 45.7973496,42.7759109 C45.9533457,42.7759109 46.1174082,42.7348809 46.2895371,42.6518571 C46.3796348,42.6106894 46.445123,42.5839786 46.4864121,42.5717247 C46.5271543,42.5590577 46.5765098,42.5529996 46.6337949,42.5529996 C46.7486387,42.5529996 46.8492637,42.6086241 46.9352598,42.7202863 C47.0213926,42.8316731 47.0645957,42.9616474 47.0645957,43.1104844 C47.0645957,43.2919527 46.9785996,43.4369345 46.806334,43.5439154 C46.5436973,43.7091369 46.1581504,43.7917476 45.6498301,43.7917476" id="Fill-10" fill="#F0A000"></path>
                <path d="M52.5756875,39.8147564 C52.5182656,39.2698009 52.3440859,38.8486238 52.0527383,38.5510874 C51.7618008,38.2541018 51.3702383,38.1051271 50.8780508,38.1051271 C50.3942031,38.1051271 50.0046914,38.2601599 49.7092422,38.5698125 C49.4142031,38.8796028 49.2255312,39.2947218 49.1435,39.8147564 L52.5756875,39.8147564 Z M50.9518789,43.8044422 C50.4843008,43.8044422 50.0600625,43.7254112 49.6784805,43.5688639 C49.2974453,43.4120411 48.9753359,43.1891298 48.7131094,42.8997169 C48.4503359,42.6107169 48.2474453,42.2618242 48.1040273,41.8530388 C47.9601992,41.4439779 47.8886953,40.9835607 47.8886953,40.4716495 C47.8886953,39.9677239 47.9601992,39.5095097 48.1040273,39.096456 C48.2474453,38.6834023 48.4503359,38.332582 48.7131094,38.043169 C48.9753359,37.7543068 49.2910195,37.5312578 49.6602969,37.3741597 C50.0293008,37.2174747 50.4390469,37.1388568 50.8904922,37.1388568 C51.3249844,37.1388568 51.7165469,37.2133441 52.0653164,37.3619058 C52.4135391,37.5104674 52.7110391,37.725393 52.9572695,38.0061319 C53.2032266,38.2870084 53.3940859,38.6235095 53.5290273,39.0159105 C53.6643789,39.4081739 53.7321914,39.8440832 53.7321914,40.3226748 C53.7321914,40.636871 53.5678555,40.793556 53.2400039,40.793556 L49.0941445,40.793556 C49.0941445,41.082969 49.1374844,41.3491132 49.2234805,41.5928149 C49.3094766,41.8366543 49.4303359,42.0470363 49.586332,42.2245117 C49.741918,42.4024002 49.9346914,42.5403601 50.1646523,42.6396307 C50.3942031,42.7389013 50.6564297,42.7881924 50.9518789,42.7881924 C51.2549844,42.7881924 51.5277383,42.7322924 51.7698672,42.6209056 C52.0118594,42.5093811 52.2394961,42.321717 52.4529141,42.057225 C52.5430117,41.9582298 52.6188906,41.8899382 52.6804141,41.8530388 C52.7418008,41.8158639 52.8178164,41.7971388 52.9079141,41.7971388 C53.0473672,41.7971388 53.1701406,41.8447777 53.2767812,41.9396424 C53.3835586,42.0349201 53.4368789,42.1439663 53.4368789,42.26802 C53.4368789,42.333971 53.4247109,42.3962044 53.4001016,42.4536188 C53.3754922,42.5118594 53.3220352,42.5943325 53.2400039,42.7014511 C52.6823281,43.436962 51.9194375,43.8044422 50.9518789,43.8044422 L50.9518789,43.8044422 Z" id="Fill-12" fill="#F0A000"></path>
                <path d="M56.1432539,43.6802782 C55.7657734,43.6802782 55.5775117,43.5028028 55.5775117,43.1475766 L55.5775117,37.7953643 C55.5775117,37.605635 55.6183906,37.4693273 55.7004219,37.3867165 C55.7824531,37.3041058 55.9217695,37.2626627 56.1186445,37.2626627 C56.3234492,37.2626627 56.4670039,37.3041058 56.5494453,37.3867165 C56.6310664,37.4693273 56.6723555,37.605635 56.6723555,37.7953643 L56.6723555,38.3904371 C57.0905781,37.6305559 57.7015742,37.2504088 58.5053437,37.2504088 C58.8824141,37.2504088 59.0712227,37.4364207 59.0712227,37.8080313 C59.0712227,38.1961641 58.8865156,38.3944299 58.5175117,38.4025533 C58.0992891,38.4106767 57.746418,38.5059544 57.4594453,38.6874227 C56.967668,39.0016189 56.7215742,39.6580989 56.7215742,40.6572758 L56.7215742,43.1475766 C56.7215742,43.5028028 56.5288008,43.6802782 56.1432539,43.6802782" id="Fill-14" fill="#F0A000"></path>
                <path d="M62.5034102,43.7917476 C61.3880586,43.7917476 60.8303828,43.2427993 60.8303828,42.1439387 L60.8303828,38.3032276 L60.28925,38.3032276 C60.1413203,38.3032276 60.034543,38.2661905 59.9690547,38.1918408 C59.903293,38.1177665 59.8708906,37.9935751 59.8708906,37.8202302 C59.8708906,37.506447 60.0099336,37.349349 60.28925,37.349349 L60.8303828,37.349349 L60.8303828,36.08568 C60.8303828,35.9371183 60.8465156,35.8235286 60.8796016,35.7450483 C60.9122773,35.6668435 60.9738008,35.598552 61.0638984,35.5407244 C61.2198945,35.4414539 61.396125,35.3921628 61.5928633,35.3921628 C61.8470234,35.3921628 61.9743086,35.5203471 61.9743086,35.7758897 L61.9743086,37.349349 L63.1063398,37.349349 C63.3848359,37.349349 63.5245625,37.506447 63.5245625,37.8202302 C63.5245625,37.9935751 63.4914766,38.1177665 63.4259883,38.1918408 C63.3605,38.2661905 63.2538594,38.3032276 63.1063398,38.3032276 L61.9743086,38.3032276 L61.9743086,41.8963819 C61.9743086,42.2265495 62.0236641,42.4560696 62.1218281,42.5839786 C62.2205391,42.7120252 62.3966328,42.7759109 62.6509297,42.7759109 C62.8069258,42.7759109 62.9709883,42.7348809 63.1431172,42.6518571 C63.2332148,42.6106894 63.2987031,42.5839786 63.3399922,42.5717247 C63.3807344,42.5590577 63.4300898,42.5529996 63.487375,42.5529996 C63.6022187,42.5529996 63.7028437,42.6086241 63.7888398,42.7202863 C63.8749727,42.8316731 63.9181758,42.9616474 63.9181758,43.1104844 C63.9181758,43.2919527 63.8321797,43.4369345 63.6599141,43.5439154 C63.3972773,43.7091369 63.0117305,43.7917476 62.5034102,43.7917476" id="Fill-16" fill="#F0A000"></path>
                <path d="M67.0292246,42.8256701 C67.2999277,42.8256701 67.5521738,42.7840894 67.7858262,42.7014786 C68.019752,42.6192809 68.2226426,42.5032128 68.3947715,42.3547889 C68.5669004,42.2062272 68.702252,42.0323316 68.8008262,41.8342035 C68.899127,41.6359377 68.9484824,41.4255557 68.9484824,41.2026444 L68.9484824,40.5582806 C68.8501816,40.5582806 68.7350645,40.5603459 68.6040879,40.5644764 C68.4728379,40.5688823 68.3394004,40.5749404 68.2040488,40.5832015 C68.0689707,40.5911872 67.9397715,40.5998613 67.8168613,40.6079847 C67.6936777,40.6161081 67.591002,40.6243692 67.5093809,40.6323549 C66.9019395,40.7068423 66.4735996,40.8372295 66.2234043,41.0226907 C65.973209,41.2087025 65.8483848,41.4833832 65.8483848,41.8468705 C65.8483848,42.1606536 65.9506504,42.4024277 66.1558652,42.5716421 C66.3608066,42.7409941 66.6521543,42.8256701 67.0292246,42.8256701 M66.8449277,43.7547656 C66.1806113,43.7547656 65.6597129,43.5956022 65.2826426,43.2776885 C64.9051621,42.9599125 64.7163535,42.5198727 64.7163535,41.9582573 C64.7163535,41.6112922 64.7758262,41.3081108 64.8950449,41.0474739 C65.0138535,40.7873877 65.1981504,40.5688823 65.4487559,40.3909938 C65.698541,40.2136561 66.0205137,40.0732179 66.414127,39.9698168 C66.8077402,39.8665533 67.2794199,39.7944066 67.8290293,39.7529636 C68.0011582,39.7365791 68.1898301,39.7240498 68.3947715,39.7159264 C68.5997129,39.7076653 68.7842832,39.7032594 68.9484824,39.7032594 L68.9484824,39.4680942 C68.9484824,39.0057494 68.8317246,38.6670454 68.5980723,38.4522574 C68.3641465,38.2373318 67.9971934,38.1299378 67.4968027,38.1299378 C67.2013535,38.1299378 66.9512949,38.1755114 66.7463535,38.2662456 C66.5415488,38.3573928 66.3240293,38.5222012 66.0944785,38.76191 C66.0039707,38.8609052 65.9264512,38.9271315 65.8605527,38.9601758 C65.7950645,38.9930824 65.716998,39.0097422 65.6269004,39.0097422 C65.4795176,39.0097422 65.3500449,38.9601758 65.2394395,38.8609052 C65.1286973,38.76191 65.0733262,38.6463927 65.0733262,38.5140778 C65.0733262,38.3823137 65.1181699,38.2539916 65.2086777,38.1299378 C65.4382285,37.8246912 65.7603379,37.5829171 66.1745957,37.4050286 C66.5883066,37.2275532 67.0418027,37.1388843 67.5335801,37.1388843 C68.3620957,37.1388843 68.9956504,37.3248962 69.4346543,37.6965068 C69.8731113,38.0679798 70.0925449,38.6093555 70.0925449,39.3195325 L70.0925449,43.2343179 C70.0925449,43.5317166 69.8997715,43.6802782 69.5142246,43.6802782 C69.1371543,43.6802782 68.9484824,43.5317166 68.9484824,43.2343179 L68.9484824,42.7140079 C68.7103184,43.0527119 68.415416,43.3107328 68.0625449,43.4882082 C67.7102207,43.6656837 67.3040293,43.7547656 66.8449277,43.7547656" id="Fill-18" fill="#F0A000"></path>
                <path d="M72.6760781,43.6802782 C72.2985977,43.6802782 72.1099258,43.5028028 72.1099258,43.1475766 L72.1099258,37.7953643 C72.1099258,37.4405512 72.2985977,37.2626627 72.6760781,37.2626627 C73.0612148,37.2626627 73.2539883,37.4405512 73.2539883,37.7953643 L73.2539883,43.1475766 C73.2539883,43.5028028 73.0612148,43.6802782 72.6760781,43.6802782 M72.6881094,36.2838631 C72.4748281,36.2838631 72.3026992,36.2220428 72.1713125,36.0982643 C72.0403359,35.9740729 71.9745742,35.7967351 71.9745742,35.5654251 C71.9745742,35.3425137 72.0403359,35.1691689 72.1713125,35.0449774 C72.3026992,34.9213366 72.4748281,34.8593786 72.6881094,34.8593786 C72.8930508,34.8593786 73.0612148,34.9213366 73.1924648,35.0449774 C73.3234414,35.1691689 73.3893398,35.3425137 73.3893398,35.5654251 C73.3893398,35.7967351 73.3234414,35.9740729 73.1924648,36.0982643 C73.0612148,36.2220428 72.8930508,36.2838631 72.6881094,36.2838631" id="Fill-20" fill="#F0A000"></path>
                <path d="M76.0957832,43.6802782 C75.7183027,43.6802782 75.530041,43.5028028 75.530041,43.1475766 L75.530041,37.7953643 C75.530041,37.605635 75.5707832,37.4693273 75.6528145,37.3867165 C75.7348457,37.3041058 75.8742988,37.2626627 76.0710371,37.2626627 C76.2759785,37.2626627 76.4195332,37.3041058 76.5019746,37.3867165 C76.583459,37.4693273 76.624748,37.605635 76.624748,37.7953643 L76.624748,38.2910288 C76.821623,37.9195558 77.1003926,37.6345488 77.4613301,37.4364207 C77.8221309,37.2377418 78.2363887,37.1388843 78.7039668,37.1388843 C79.4006855,37.1388843 79.9401777,37.3290267 80.3217598,37.7086231 C80.7027949,38.0887702 80.8935176,38.6295952 80.8935176,39.3317865 L80.8935176,43.1475766 C80.8935176,43.5028028 80.7007441,43.6802782 80.3151973,43.6802782 C79.938127,43.6802782 79.7494551,43.5028028 79.7494551,43.1475766 L79.7494551,39.6539683 C79.7494551,39.1416441 79.6447285,38.7700334 79.4358223,38.538861 C79.2265059,38.3076886 78.8882637,38.1917582 78.4206855,38.1917582 C77.8795527,38.1917582 77.4532637,38.4025533 77.1411348,38.8238681 C76.8296895,39.2450452 76.6739668,39.8193275 76.6739668,40.5456136 L76.6739668,43.1475766 C76.6739668,43.5028028 76.4813301,43.6802782 76.0957832,43.6802782" id="Fill-22" fill="#F0A000"></path>
                <path d="M83.2556211,43.6802782 C82.8781406,43.6802782 82.6898789,43.5028028 82.6898789,43.1475766 L82.6898789,37.7953643 C82.6898789,37.605635 82.7306211,37.4693273 82.8126523,37.3867165 C82.8946836,37.3041058 83.0341367,37.2626627 83.2310117,37.2626627 C83.4358164,37.2626627 83.5793711,37.3041058 83.6618125,37.3867165 C83.7434336,37.4693273 83.7845859,37.605635 83.7845859,37.7953643 L83.7845859,38.2910288 C83.9733945,37.9195558 84.2356211,37.6345488 84.5718125,37.4364207 C84.9080039,37.2377418 85.2976523,37.1388843 85.7406211,37.1388843 C86.1997227,37.1388843 86.5896445,37.2316837 86.909293,37.4176956 C87.2293516,37.6037074 87.4669688,37.8821056 87.6229648,38.2539916 C87.8198398,37.9068888 88.1107773,37.6345488 88.4963242,37.4364207 C88.8818711,37.2377418 89.2916172,37.1388843 89.7265195,37.1388843 C90.3908359,37.1388843 90.9032578,37.3290267 91.2641953,37.7086231 C91.6249961,38.0887702 91.8057383,38.6295952 91.8057383,39.3317865 L91.8057383,43.1475766 C91.8057383,43.5028028 91.6128281,43.6802782 91.227418,43.6802782 C90.8499375,43.6802782 90.6615391,43.5028028 90.6615391,43.1475766 L90.6615391,39.6539683 C90.6615391,39.1416441 90.5629648,38.7700334 90.3662266,38.538861 C90.1693516,38.3076886 89.8618711,38.1917582 89.4435117,38.1917582 C88.9432578,38.1917582 88.5475938,38.4025533 88.2562461,38.8238681 C87.9653086,39.2450452 87.8198398,39.8193275 87.8198398,40.5456136 L87.8198398,43.1475766 C87.8198398,43.5028028 87.6270664,43.6802782 87.2415195,43.6802782 C86.8640391,43.6802782 86.6757773,43.5028028 86.6757773,43.1475766 L86.6757773,39.6539683 C86.6757773,39.1416441 86.5770664,38.7700334 86.3803281,38.538861 C86.1835898,38.3076886 85.8759727,38.1917582 85.4576133,38.1917582 C84.9573594,38.1917582 84.5616953,38.4025533 84.2703477,38.8238681 C83.9794102,39.2450452 83.8339414,39.8193275 83.8339414,40.5456136 L83.8339414,43.1475766 C83.8339414,43.5028028 83.641168,43.6802782 83.2556211,43.6802782" id="Fill-24" fill="#F0A000"></path>
                <path d="M97.907168,39.8147564 C97.8497461,39.2698009 97.6755664,38.8486238 97.3842187,38.5510874 C97.0932812,38.2541018 96.7017187,38.1051271 96.2093945,38.1051271 C95.7256836,38.1051271 95.3360352,38.2601599 95.0407227,38.5698125 C94.7456836,38.8796028 94.5570117,39.2947218 94.4749805,39.8147564 L97.907168,39.8147564 Z M96.2833594,43.8044422 C95.8157812,43.8044422 95.391543,43.7254112 95.0099609,43.5688639 C94.6289258,43.4120411 94.3068164,43.1891298 94.0445898,42.8997169 C93.7818164,42.6107169 93.5789258,42.2618242 93.4355078,41.8530388 C93.2916797,41.4439779 93.2201758,40.9835607 93.2201758,40.4716495 C93.2201758,39.9677239 93.2916797,39.5095097 93.4355078,39.096456 C93.5789258,38.6834023 93.7818164,38.332582 94.0445898,38.043169 C94.3068164,37.7543068 94.6225,37.5312578 94.9917773,37.3741597 C95.3607812,37.2174747 95.7705273,37.1388568 96.2219727,37.1388568 C96.6564648,37.1388568 97.0480273,37.2133441 97.3967969,37.3619058 C97.7450195,37.5104674 98.0425195,37.725393 98.2886133,38.0061319 C98.534707,38.2870084 98.7254297,38.6235095 98.8605078,39.0159105 C98.9958594,39.4081739 99.0636719,39.8440832 99.0636719,40.3226748 C99.0636719,40.636871 98.8991992,40.793556 98.5714844,40.793556 L94.425625,40.793556 C94.425625,41.082969 94.4688281,41.3491132 94.5549609,41.5928149 C94.640957,41.8366543 94.7618164,42.0470363 94.9178125,42.2245117 C95.0733984,42.4024002 95.2661719,42.5403601 95.4961328,42.6396307 C95.7256836,42.7389013 95.9879102,42.7881924 96.2833594,42.7881924 C96.5864648,42.7881924 96.8592187,42.7322924 97.1013477,42.6209056 C97.3433398,42.5093811 97.5709766,42.321717 97.7842578,42.057225 C97.8743555,41.9582298 97.9503711,41.8899382 98.0118945,41.8530388 C98.0732812,41.8158639 98.1492969,41.7971388 98.2393945,41.7971388 C98.3787109,41.7971388 98.5016211,41.8447777 98.6082617,41.9396424 C98.7150391,42.0349201 98.7683594,42.1439663 98.7683594,42.26802 C98.7683594,42.333971 98.7561914,42.3962044 98.731582,42.4536188 C98.7069727,42.5118594 98.6535156,42.5943325 98.5714844,42.7014511 C98.0138086,43.436962 97.250918,43.8044422 96.2833594,43.8044422 L96.2833594,43.8044422 Z" id="Fill-26" fill="#F0A000"></path>
                <path d="M100.98293,43.6802782 C100.605449,43.6802782 100.417187,43.5028028 100.417187,43.1475766 L100.417187,37.7953643 C100.417187,37.605635 100.45793,37.4693273 100.539961,37.3867165 C100.621992,37.3041058 100.761445,37.2626627 100.95832,37.2626627 C101.163125,37.2626627 101.30668,37.3041058 101.389121,37.3867165 C101.470742,37.4693273 101.511895,37.605635 101.511895,37.7953643 L101.511895,38.2910288 C101.70877,37.9195558 101.987539,37.6345488 102.348477,37.4364207 C102.709277,37.2377418 103.123535,37.1388843 103.591113,37.1388843 C104.287832,37.1388843 104.827324,37.3290267 105.208906,37.7086231 C105.589941,38.0887702 105.780664,38.6295952 105.780664,39.3317865 L105.780664,43.1475766 C105.780664,43.5028028 105.587891,43.6802782 105.202344,43.6802782 C104.825273,43.6802782 104.636602,43.5028028 104.636602,43.1475766 L104.636602,39.6539683 C104.636602,39.1416441 104.531875,38.7700334 104.322969,38.538861 C104.113652,38.3076886 103.77541,38.1917582 103.307832,38.1917582 C102.766699,38.1917582 102.34041,38.4025533 102.028418,38.8238681 C101.716836,39.2450452 101.56125,39.8193275 101.56125,40.5456136 L101.56125,43.1475766 C101.56125,43.5028028 101.368477,43.6802782 100.98293,43.6802782" id="Fill-28" fill="#F0A000"></path>
                <path d="M109.618646,43.7917476 C108.503295,43.7917476 107.945619,43.2427993 107.945619,42.1439387 L107.945619,38.3032276 L107.404486,38.3032276 C107.256557,38.3032276 107.149779,38.2661905 107.084428,38.1918408 C107.018529,38.1177665 106.986264,37.9935751 106.986264,37.8202302 C106.986264,37.506447 107.12517,37.349349 107.404486,37.349349 L107.945619,37.349349 L107.945619,36.08568 C107.945619,35.9371183 107.961752,35.8235286 107.994975,35.7450483 C108.02765,35.6668435 108.089037,35.598552 108.179135,35.5407244 C108.335131,35.4414539 108.511361,35.3921628 108.7081,35.3921628 C108.962396,35.3921628 109.089682,35.5203471 109.089682,35.7758897 L109.089682,37.349349 L110.221576,37.349349 C110.500072,37.349349 110.639936,37.506447 110.639936,37.8202302 C110.639936,37.9935751 110.606713,38.1177665 110.541225,38.1918408 C110.475873,38.2661905 110.369096,38.3032276 110.221576,38.3032276 L109.089682,38.3032276 L109.089682,41.8963819 C109.089682,42.2265495 109.1389,42.4560696 109.237064,42.5839786 C109.335775,42.7120252 109.512006,42.7759109 109.766166,42.7759109 C109.922162,42.7759109 110.086225,42.7348809 110.258354,42.6518571 C110.348451,42.6106894 110.413939,42.5839786 110.455229,42.5717247 C110.495971,42.5590577 110.545326,42.5529996 110.602748,42.5529996 C110.717455,42.5529996 110.81808,42.6086241 110.904213,42.7202863 C110.990209,42.8316731 111.033549,42.9616474 111.033549,43.1104844 C111.033549,43.2919527 110.947416,43.4369345 110.775287,43.5439154 C110.51265,43.7091369 110.126967,43.7917476 109.618646,43.7917476" id="Fill-30" fill="#F0A000"></path>
                <path d="M92.8264121,65.363987 C92.7808848,65.2583829 92.6972129,65.177149 92.5909824,65.1348799 C92.5406699,65.1147779 92.4878965,65.104727 92.434166,65.104727 C92.257252,65.104727 92.1009824,65.2118455 92.0359043,65.3776178 L90.922877,68.2187389 L89.8097129,65.3776178 C89.7997324,65.3537983 89.7874277,65.3301166 89.7864707,65.328189 C89.726041,65.2168022 89.6211777,65.1390104 89.4988145,65.1138141 C89.490748,65.1121619 89.4647715,65.1062415 89.4098105,65.104727 L85.7225059,65.104727 C85.4865293,65.104727 85.2947129,65.2980361 85.2947129,65.5356797 C85.2947129,65.7733232 85.4865293,65.9664947 85.7225059,65.9664947 L86.9341074,65.9664947 L86.9341074,69.3929129 C86.9341074,69.6304188 87.1260605,69.8238667 87.3619004,69.8238667 C87.597877,69.8238667 87.7898301,69.6304188 87.7898301,69.3929129 L87.7898301,65.9664947 L89.1205137,65.9664947 C89.1205137,65.9664947 90.5001426,69.491082 90.5309043,69.565294 C90.587916,69.6969204 90.7034434,69.7888937 90.8400254,69.8156045 C90.8452207,69.8164306 90.8740684,69.8231771 90.9231504,69.8238667 C91.1019785,69.8242786 91.2571543,69.7082105 91.3145762,69.5654316 C91.3148496,69.5648809 92.8320176,65.6938792 92.8320176,65.6938792 C92.8739902,65.5867606 92.8719395,65.4697287 92.8264121,65.363987" id="Fill-32" fill="#FEFEFE"></path>
                <path d="M65.4790527,64.9475738 C62.8025098,64.9475738 60.6325098,67.1331786 60.6325098,69.8286295 C60.6325098,72.5240803 62.8025098,74.7095474 65.4790527,74.7095474 C68.1560059,74.7095474 70.3260059,72.5240803 70.3260059,69.8286295 C70.3260059,67.1331786 68.1560059,64.9475738 65.4790527,64.9475738" id="Fill-34" fill="#FEFEFE"></path>
                <path d="M59.0521367,65.1342052 C58.2733867,64.9744911 57.5126836,65.4803442 57.3538164,66.2647332 L56.7348906,69.3180262 L54.4585234,65.7692065 C54.201082,65.3721242 53.7570195,65.109422 53.2521172,65.109422 C52.5611406,65.109422 51.9839141,65.6012313 51.8435039,66.2572983 L50.5159648,72.8015835 C50.3569609,73.5861102 50.8499688,74.3484697 51.6302227,74.515068 C51.7271563,74.5357207 51.8324297,74.545634 51.9279961,74.5463589 C52.5955937,74.5511413 53.1963359,74.079021 53.3368828,73.3815109 L53.9558086,70.3283556 C53.9558086,70.3283556 55.8872344,73.3481913 56.1900664,73.8207247 C56.1900664,73.8207247 56.2425664,73.9023717 56.2674492,73.9376189 C56.5221562,74.3001424 56.9536406,74.5463589 57.4391289,74.5463589 C58.1489727,74.5463589 58.7387773,74.0265631 58.8574492,73.3425462 L60.1745977,66.8446606 C60.3337383,66.0602716 59.8311602,65.2943324 59.0521367,65.1342052" id="Fill-36" fill="#FEFEFE"></path>
                <path d="M70.9618164,66.8315944 C70.8371289,66.0125089 71.3953516,65.2515262 72.2086914,65.1259579 C73.0210742,64.9999765 73.7816406,65.5611788 73.9070117,66.3848079 L74.2694531,68.9431249 L76.3154492,65.785467 L76.3176367,65.7857424 C76.5850586,65.378196 77.0425195,65.1094358 77.5619141,65.1094358 C78.2136523,65.1094358 78.7676367,65.5321274 78.9713477,66.121555 L78.9733984,66.1218304 L79.9987891,69.1548838 L81.5824023,65.9471087 C81.9496289,65.1989307 82.8491016,64.8947855 83.5841016,65.2676353 C84.3196484,65.6404852 84.6197461,66.53929 84.2507422,67.2820983 L81.1243945,73.6195813 C80.9007227,74.1688051 80.3668359,74.5554233 79.7435352,74.5554233 C79.072793,74.5554233 78.5052734,74.1075354 78.3170117,73.4908462 L77.1389062,70.0057744 L74.6861719,73.791274 C74.4291406,74.2475606 73.9441992,74.5554233 73.3883008,74.5554233 C72.6154297,74.5554233 71.9796875,73.9607637 71.9029883,73.1986796 L70.9618164,66.8315944 Z" id="Fill-38" fill="#FEFEFE"></path>
            </g>
        </g>
    </g>
</svg>