<?xml version="1.0" encoding="UTF-8"?>
<svg width="140px" height="78px" viewBox="0 0 140 78" version="1.1" xmlns="http://www.w3.org/2000/svg" xmlns:xlink="http://www.w3.org/1999/xlink">
    <title>Cinema Pass RGB Copy 2</title>
    <defs>
        <polygon id="path-1" points="0.008203125 0.0767770035 140 0.0767770035 140 78 0.008203125 78"></polygon>
    </defs>
    <g id="Cinema-Pass-RGB-Copy-2" stroke="none" stroke-width="1" fill="none" fill-rule="evenodd">
        <g id="Group">
            <g id="Group-3">
                <mask id="mask-2" fill="white">
                    <use xlink:href="#path-1"></use>
                </mask>
                <g id="Clip-2"></g>
                <path d="M0,30.3804564 C4.83246094,30.3804564 8.75,34.2569477 8.75,39.0387282 C8.75,43.8205087 4.83246094,47.6968641 0,47.6968641 L0,78.0006794 L140,78.0006794 L140,47.6990383 C135.169727,47.6964564 131.254648,43.8211882 131.254648,39.0410383 C131.254648,34.2607526 135.169727,30.3854843 140,30.3830383 L140,0.0767770035 L0,0.0767770035 L0,30.3804564" id="Fill-1" fill="#5A0F96" mask="url(#mask-2)"></path>
            </g>
            <path d="M92.8264258,64.2321847 C92.7808984,64.1278223 92.6972266,64.0476481 92.5908594,64.0059303 C92.5406836,63.9860906 92.4879102,63.9761707 92.4341797,63.9761707 C92.2572656,63.9761707 92.1008594,64.081892 92.035918,64.2453659 L90.9227539,67.049561 L89.8095898,64.2453659 C89.7996094,64.221993 89.7874414,64.1986202 89.7864844,64.1968537 C89.725918,64.086784 89.6211914,64.0101429 89.4988281,63.9851394 C89.490625,63.9835087 89.4647852,63.9775296 89.4098242,63.9761707 L85.7225195,63.9761707 C85.486543,63.9761707 85.2945898,64.1669582 85.2945898,64.4015017 C85.2945898,64.6359094 85.486543,64.8266969 85.7225195,64.8266969 L86.9339844,64.8266969 L86.9339844,68.2084181 C86.9339844,68.4428258 87.1260742,68.6336132 87.3619141,68.6336132 C87.5978906,68.6336132 87.789707,68.4428258 87.789707,68.2084181 L87.789707,64.8266969 L89.1203906,64.8266969 C89.1203906,64.8266969 90.5001563,68.3053066 90.530918,68.3785505 C90.5879297,68.508324 90.703457,68.5990976 90.8400391,68.6255958 C90.8452344,68.6262753 90.874082,68.6330697 90.9231641,68.6337502 C91.1019922,68.6341568 91.257168,68.5194669 91.3145898,68.3786864 C91.3147266,68.378007 92.8318945,64.5576376 92.8318945,64.5576376 C92.8740039,64.4519164 92.8719531,64.3362753 92.8264258,64.2321847" id="Fill-4" fill="#FFFFFE"></path>
            <path d="M65.4789844,63.8209861 C62.8024414,63.8209861 60.6324414,65.978216 60.6324414,68.6385052 C60.6324414,71.2987944 62.8024414,73.4557526 65.4789844,73.4557526 C68.1560742,73.4557526 70.3260742,71.2987944 70.3260742,68.6385052 C70.3260742,65.978216 68.1560742,63.8209861 65.4789844,63.8209861" id="Fill-5" fill="#FFFFFE"></path>
            <path d="M59.0521094,64.0052509 C58.2732227,63.8476202 57.5126563,64.3467387 57.3537891,65.1210314 L56.7347266,68.1343589 L54.4584961,64.6321045 C54.2010547,64.2399303 53.7568555,63.9807909 53.2520898,63.9807909 C52.5611133,63.9807909 51.9838867,64.4660488 51.8434766,65.1136934 L50.5159375,71.5726098 C50.3569336,72.3469024 50.8499414,73.0993171 51.6301953,73.2636063 C51.7272656,73.2841254 51.8324023,73.2939094 51.927832,73.2946229 C52.5955664,73.2992091 53.1964453,72.8333833 53.3368555,72.1449721 L53.9557813,69.1316446 C53.9557813,69.1316446 55.887207,72.1120871 56.1900391,72.5784564 C56.1900391,72.5784564 56.2425391,72.6589024 56.2674219,72.6938258 C56.5221289,73.0516202 56.9536133,73.2946229 57.4391016,73.2946229 C58.1489453,73.2946229 58.7388867,72.7816098 58.8574219,72.1065157 L60.174707,65.6933937 C60.3337109,64.9192369 59.8311328,64.1634251 59.0521094,64.0052509" id="Fill-6" fill="#FFFFFE"></path>
            <path d="M70.9618164,65.6804843 C70.8371289,64.8720836 71.3953516,64.1210279 72.2086914,63.9972334 C73.0210742,63.8727596 73.7816406,64.426777 73.9070117,65.2395261 L74.2694531,67.7644704 L76.3153125,64.6480035 L76.3176367,64.6482753 C76.5850586,64.2460453 77.0425195,63.9807909 77.5619141,63.9807909 C78.2135156,63.9807909 78.7676367,64.3981045 78.9714844,64.9797003 L78.9733984,64.9799791 L79.9987891,67.9734669 L81.5824023,64.8075366 C81.9496289,64.0691185 82.8489648,63.7689408 83.5841016,64.1367909 C84.3196484,64.5049129 84.6196094,65.391993 84.2507422,66.1252474 L81.1243945,72.3799233 C80.9005859,72.9219826 80.3666992,73.3035575 79.7435352,73.3035575 C79.072793,73.3035575 78.5054102,72.8613763 78.3170117,72.2528676 L77.1389062,68.813122 L74.6861719,72.5493763 C74.4291406,72.9998467 73.9441992,73.3035575 73.3881641,73.3035575 C72.6154297,73.3035575 71.9796875,72.7167909 71.9029883,71.9646481 L70.9618164,65.6804843" id="Fill-7" fill="#FFFFFE"></path>
            <g id="Group-2" transform="translate(27.290840, 30.309115)" fill="#FFFFFE">
                <path d="M81.6968359,12.8092578 C81.5605273,12.8433659 81.3048633,12.8772021 81.0661523,12.8772021 C80.5545508,12.8772021 80.3158398,12.6906272 80.3158398,12.3517213 L80.3158398,11.6400732 C79.5827539,12.4704878 78.6283203,12.9618606 77.4176758,12.9618606 C75.5934375,12.9618606 74.5875977,11.7756899 74.5875977,10.4878746 C74.5875977,8.52224739 76.7016797,7.65799652 80.2988867,7.89525784 L80.2988867,7.60717422 C80.2988867,6.26853659 79.8896875,5.7093554 78.3383398,5.7093554 C77.6904297,5.7093554 76.8210352,5.89579443 76.3607031,6.01442509 C76.0878125,6.08209756 75.8832812,6.15004181 75.712793,6.15004181 C75.3206836,6.15004181 75.0650195,5.811 75.2013281,5.09935192 C76.0366797,4.79441812 77.2471875,4.50619861 78.4064258,4.50619861 C80.8103516,4.50619861 81.6968359,5.57373868 81.6968359,7.59032404 L81.6968359,12.8092578 Z M72.9952344,12.3517213 C72.9952344,12.6906272 72.8076562,12.8772021 72.2450586,12.8772021 C72.0063477,12.8772021 71.7335937,12.8433659 71.5974219,12.8092578 L71.5974219,7.62416028 C71.5974219,6.43798955 71.0348242,5.74332753 69.9607617,5.74332753 C69.0570508,5.74332753 68.306875,6.37031707 68.0000781,7.01402091 L68.0000781,12.3517213 C68.0000781,12.6906272 67.8125,12.8772021 67.2499023,12.8772021 C67.0111914,12.8772021 66.7384375,12.8433659 66.6021289,12.8092578 L66.6021289,7.62416028 C66.6021289,6.43798955 66.0395312,5.74332753 64.965332,5.74332753 C64.0618945,5.74332753 63.3117187,6.37031707 63.0047852,7.01402091 L63.0047852,12.3517213 C63.0047852,12.6906272 62.8173437,12.8772021 62.2547461,12.8772021 C62.0160352,12.8772021 61.7432812,12.8433659 61.6068359,12.8092578 L61.6068359,4.65880139 C61.7432812,4.62482927 62.0160352,4.59099303 62.2718359,4.59099303 C62.8002539,4.59099303 62.987832,4.79441812 62.987832,5.15017422 L62.987832,5.7093554 C63.51625,5.01469338 64.3346484,4.50619861 65.3235352,4.50619861 C66.4146875,4.50619861 67.2669922,5.04852962 67.6931445,5.98045296 C68.2557422,5.13318815 69.1081836,4.50619861 70.3186914,4.50619861 C72.074707,4.50619861 72.9952344,5.811 72.9952344,7.45470732 L72.9952344,12.3517213 Z M59.8065234,9.23389547 L53.4644141,9.23389547 C53.6519922,10.8097944 54.7430078,11.6910314 56.3627148,11.6910314 C57.0616211,11.6910314 57.6072656,11.5554146 58.1187305,11.3859617 C58.4766602,11.2671951 58.6301953,11.2165087 58.7665039,11.2165087 C59.1586133,11.2165087 59.4144141,11.5384286 59.3461914,12.2840488 C58.6131055,12.6059686 57.4879102,12.9618606 56.311582,12.9618606 C53.7542578,12.9618606 52.0324219,11.2503449 52.0324219,8.70868641 C52.0324219,6.26853659 53.8566602,4.50619861 56.0899609,4.50619861 C58.6131055,4.50619861 59.857793,6.45497561 59.857793,8.4204669 C59.857793,8.65772822 59.8405664,8.94581185 59.8065234,9.23389547 Z M50.361582,12.3517213 C50.361582,12.6736411 50.1740039,12.8772021 49.6114062,12.8772021 C49.3726953,12.8772021 49.0999414,12.8433659 48.9636328,12.8092578 L48.9636328,8.14936934 C48.9636328,6.52264808 48.1624609,5.74332753 46.9518164,5.74332753 C46.0141992,5.74332753 44.9914062,6.38716725 44.5820703,7.14977352 L44.5820703,12.3517213 C44.5820703,12.6736411 44.3946289,12.8772021 43.8320312,12.8772021 C43.5933203,12.8772021 43.3205664,12.8433659 43.1841211,12.8092578 L43.1841211,4.65880139 C43.3205664,4.62482927 43.5933203,4.59099303 43.8320312,4.59099303 C44.3946289,4.59099303 44.5820703,4.79441812 44.5820703,5.11620209 L44.5820703,5.811 C45.1787109,5.08236585 46.0825586,4.50619861 47.292793,4.50619861 C48.9636328,4.50619861 50.361582,5.5568885 50.361582,7.9630662 L50.361582,12.3517213 Z M40.3014062,3.69290592 C39.8238477,3.69290592 39.4146484,3.26920557 39.4146484,2.81180488 C39.4146484,2.26947387 39.8804492,1.88137631 40.3980664,1.93573171 C40.5808594,1.95502787 40.7525781,2.03955052 40.8901172,2.16089895 C41.5605859,2.75214983 41.0636133,3.69290592 40.3014062,3.69290592 Z M40.9832227,12.3517213 C40.9832227,12.6906272 40.8128711,12.8772021 40.2502734,12.8772021 C40.0114258,12.8772021 39.7386719,12.8433659 39.6022266,12.8092578 L39.6022266,5.11620209 C39.6022266,4.79441812 39.7898047,4.59099303 40.3525391,4.59099303 C40.5911133,4.59099303 40.8469141,4.62482927 40.9832227,4.65880139 L40.9832227,12.3517213 Z M35.2123242,11.7248676 C36.4397852,11.7248676 36.9511133,11.2165087 37.4967578,11.2165087 C37.8548242,11.2165087 38.1104883,11.5384286 38.0080859,12.3010348 C37.2922266,12.6567909 36.2692969,12.9618606 35.1611914,12.9618606 C32.7913086,12.9618606 31.00125,11.1317143 31.00125,8.72567247 C31.00125,6.30237282 32.7913086,4.50619861 35.1611914,4.50619861 C36.2692969,4.50619861 37.2922266,4.81126829 38.0080859,5.15017422 C38.1275781,5.91278049 37.8888672,6.21771429 37.5478906,6.21771429 C36.9511133,6.21771429 36.4397852,5.72634146 35.2123242,5.72634146 C33.677793,5.72634146 32.4162891,6.86155401 32.4162891,8.72567247 C32.4162891,10.572669 33.677793,11.7248676 35.2123242,11.7248676 Z M84.2604492,0 L28.8961914,0 C28.2566211,0 27.7383203,0.515289199 27.7383203,1.15083972 L27.7383203,16.1110767 C27.7383203,16.7466272 28.2566211,17.2619164 28.8961914,17.2619164 L84.2604492,17.2619164 C84.8998828,17.2619164 85.4183203,16.7466272 85.4183203,16.1110767 L85.4183203,1.15083972 C85.4183203,0.515289199 84.8998828,0 84.2604492,0 Z M75.9855469,10.4370523 C75.9855469,11.1487003 76.5823242,11.792676 77.6563867,11.792676 C78.7475391,11.792676 79.7022461,11.2503449 80.2988867,10.4370523 L80.2988867,8.89498955 C77.9460937,8.72567247 75.9855469,9.03060627 75.9855469,10.4370523 Z M56.0899609,5.67538328 C54.8281836,5.67538328 53.6861719,6.53963415 53.4644141,8.14936934 L58.49375,8.14936934 C58.4426172,6.75990941 57.5391797,5.67538328 56.0899609,5.67538328 L56.0899609,5.67538328 Z" id="Fill-8"></path>
                <path d="M7.74785156,10.3586446 C7.74785156,11.8417317 6.77345703,12.9210941 4.79144531,13.1330801 C3.35685547,13.2854111 1.28132813,13.1065819 0.293671875,12.9939303 C0.2603125,12.8350767 0.233652344,12.6365436 0.233652344,12.477554 C0.233652344,11.1864774 0.934335937,10.8884739 1.59496094,10.8884739 C2.28238281,10.8884739 3.36355469,11.0076481 4.16431641,11.0076481 C5.05162109,11.0076481 5.31876953,10.7096446 5.31876953,10.4250941 C5.31876953,10.0541185 4.96507813,9.90205923 4.27765625,9.76943206 L2.39585938,9.41177352 C0.834121094,9.11390592 -2.48689958e-15,8.04120209 -2.48689958e-15,6.90245645 C-2.48689958e-15,5.51870383 0.987792969,4.35984669 2.92960938,4.1481324 C4.39769531,3.98914286 6.18611328,4.16797213 7.16720703,4.28714634 C7.20056641,4.45238676 7.22052734,4.6115122 7.22052734,4.78368293 C7.22052734,6.07462369 6.53310547,6.35292334 5.87248047,6.35292334 C5.36525391,6.35292334 4.57802734,6.26024739 3.67705078,6.26024739 C2.7628125,6.26024739 2.38246094,6.51191289 2.38246094,6.81630314 C2.38246094,7.14080488 2.74285156,7.27316028 3.31666016,7.37249477 L5.11177734,7.70365505 C6.95365234,8.04120209 7.74785156,9.08088502 7.74785156,10.3586446 Z M10.9688086,11.9477247 C10.9688086,12.7422648 10.6549023,13.1992578 9.0934375,13.1992578 C8.88658203,13.1992578 8.70638672,13.1859408 8.53289063,13.1597143 L8.53289063,2.6318885 C8.53289063,1.8306899 8.80646484,0.996198606 10.3813281,0.996198606 C10.5814844,0.996198606 10.7817773,1.01603833 10.9688086,1.05598955 L10.9688086,11.9477247 Z M17.35125,16.0200314 C17.5582422,16.1256167 17.9786523,16.2515854 18.5058398,16.2649024 C19.4133789,16.2846063 19.9074805,15.9405366 20.2742969,15.1325436 L25.1391602,4.36664111 C24.9390039,4.2605122 24.4919336,4.14147387 24.1314063,4.13481533 C23.5042773,4.12163415 22.663457,4.2474669 22.1294336,5.51870383 L20.554707,9.20644599 L17.4648633,4.2143101 C17.264707,4.15451916 16.7774414,4.06863763 16.42375,4.06863763 C15.3294531,4.06863763 14.7221484,4.46583972 14.0881836,5.14772822 L11.085293,8.40565505 L13.5008398,12.1795505 C13.9481836,12.8680976 14.5353906,13.2189617 15.4898242,13.2189617 C16.1170898,13.2189617 16.6375781,13.0734251 16.8775195,12.9610453 L13.9680078,8.6107108 L16.0301367,6.43921254 L19.4133789,11.7095122 L17.35125,16.0200314 L17.35125,16.0200314 Z" id="Fill-9"></path>
            </g>
        </g>
    </g>
</svg>