<?xml version="1.0" encoding="UTF-8"?>
<svg width="140px" height="79px" viewBox="0 0 140 79" version="1.1" xmlns="http://www.w3.org/2000/svg" xmlns:xlink="http://www.w3.org/1999/xlink">
    <!-- Generator: Sketch 58 (84663) - https://sketch.com -->
    <title>Sports</title>
    <desc>Created with Sketch.</desc>
    <defs>
        <polygon id="path-1" points="0 0.0764416474 140 0.0764416474 140 78.2827932 0 78.2827932"></polygon>
    </defs>
    <g id="Page-1" stroke="none" stroke-width="1" fill="none" fill-rule="evenodd">
        <g id="Home-v1" transform="translate(-633.000000, -714.000000)">
            <g id="Sports" transform="translate(633.000000, 714.000000)">
                <g id="Group-3" transform="translate(0.000000, 0.060008)">
                    <mask id="mask-2" fill="white">
                        <use xlink:href="#path-1"></use>
                    </mask>
                    <g id="Clip-2"></g>
                    <path d="M0,30.4899887 C4.83246094,30.4899887 8.75,34.3803981 8.75,39.1795151 C8.75,43.9786322 4.83246094,47.869178 0,47.869178 L0,78.2828614 L140,78.2828614 L140,47.8712237 C135.169727,47.8687688 131.254648,43.9794505 131.254648,39.1818336 C131.254648,34.3843531 135.169727,30.4950348 140,30.49258 L140,0.0764416474 L0,0.0764416474 L0,30.4899887 Z" id="Fill-1" fill="#285ACD" mask="url(#mask-2)"></path>
                </g>
                <path d="M92.8264258,64.745298 C92.7808984,64.6406936 92.6973633,64.5600923 92.5908594,64.5182233 C92.5406836,64.498448 92.4879102,64.4883558 92.4341797,64.4883558 C92.2572656,64.4883558 92.1008594,64.5944604 92.035918,64.7586633 L90.9227539,67.5728888 L89.8097266,64.7586633 C89.7996094,64.7352057 89.7874414,64.7116118 89.7864844,64.7098389 C89.725918,64.5993701 89.6211914,64.5224511 89.4988281,64.4974934 C89.4907617,64.4957204 89.4647852,64.489856 89.4098242,64.4884922 L85.7225195,64.4884922 C85.486543,64.4884922 85.2945898,64.6799714 85.2945898,64.9152289 C85.2945898,65.1506228 85.486543,65.342102 85.7225195,65.342102 L86.9339844,65.342102 L86.9339844,68.7359475 C86.9339844,68.971205 87.1260742,69.1628205 87.3619141,69.1628205 C87.5978906,69.1628205 87.789707,68.971205 87.789707,68.7359475 L87.789707,65.342102 L89.1205273,65.342102 C89.1205273,65.342102 90.5001563,68.8333236 90.5310547,68.9068331 C90.5879297,69.0370771 90.703457,69.1281797 90.8400391,69.1546377 C90.8452344,69.1554559 90.874082,69.1621386 90.9231641,69.162958 C91.1019922,69.163366 91.257168,69.0482603 91.3145898,68.9068331 C91.3147266,68.9062875 92.8318945,65.0719309 92.8318945,65.0719309 C92.8740039,64.9658263 92.8719531,64.8499023 92.8264258,64.745298" id="Fill-4" fill="#FEFEFE"></path>
                <path d="M65.4790664,64.3326904 C62.8025234,64.3326904 60.6325234,66.4977415 60.6325234,69.1676757 C60.6325234,71.8374735 62.8025234,74.0022519 65.4790664,74.0022519 C68.1560195,74.0022519 70.3260195,71.8374735 70.3260195,69.1676757 C70.3260195,66.4977415 68.1560195,64.3326904 65.4790664,64.3326904" id="Fill-6" fill="#FEFEFE"></path>
                <path d="M59.052082,64.5176914 C58.273332,64.3594893 57.5126289,64.8604173 57.3537617,65.6375172 L56.7349727,68.6617697 L54.4584688,65.1466814 C54.2011641,64.7532217 53.7569648,64.4931428 53.2520625,64.4931428 C52.5610859,64.4931428 51.9839961,64.98016 51.8434492,65.6300163 L50.5159102,72.1124862 C50.3569063,72.8894497 50.8499141,73.6447286 51.630168,73.8096135 C51.7272383,73.8300707 51.832375,73.8398901 51.9279414,73.8406082 C52.5955391,73.8453454 53.196418,73.3778307 53.3368281,72.6867873 L53.9558906,69.6626712 C53.9558906,69.6626712 55.8873164,72.653783 56.1900117,73.1219796 C56.1900117,73.1219796 56.2425117,73.2027173 56.2673945,73.2376308 C56.5221016,73.5967225 56.9535859,73.8406082 57.4390742,73.8406082 C58.1490547,73.8406082 58.7388594,73.3257331 58.8573945,72.6481914 L60.1746797,66.2119547 C60.3336836,65.4348548 59.8311055,64.6763027 59.052082,64.5176914" id="Fill-8" fill="#FEFEFE"></path>
                <path d="M70.9618437,66.1988758 C70.8371562,65.3875442 71.3953789,64.6337654 72.2087188,64.5093858 C73.0211016,64.3847334 73.781668,64.9404867 73.9070391,65.7564552 L74.2694805,68.2905538 L76.3153398,65.1626516 L76.3176641,65.1629244 C76.5850859,64.7592361 77.0425469,64.4931564 77.5619414,64.4931564 C78.2136797,64.4931564 78.7676641,64.9117103 78.9715117,65.4956944 L78.9734258,65.4958308 L79.9988164,68.5001717 L81.5824297,65.3227631 C81.9496562,64.5818042 82.8489922,64.2805382 83.5841289,64.649722 C84.3196758,65.0191786 84.6196367,65.9093385 84.2507695,66.6452514 L81.1244219,72.922604 C80.9006133,73.4666285 80.3668633,73.8495868 79.7435625,73.8495868 C79.0728203,73.8495868 78.5054375,73.4059389 78.3170391,72.7950876 L77.1389336,69.3430073 L74.6861992,73.0928077 C74.429168,73.5447749 73.9442266,73.8495868 73.3881914,73.8495868 C72.615457,73.8495868 71.9797148,73.2605565 71.9030156,72.5058231 L70.9618437,66.1988758 Z" id="Fill-10" fill="#FEFEFE"></path>
                <path d="M103.342012,43.2749872 C102.298164,43.2749872 101.038711,43.0271826 100.276504,42.7295989 C100.193926,42.0681502 100.409121,41.7046944 100.75707,41.7046944 C101.138105,41.7046944 102.066016,42.1344315 103.375098,42.1344315 C104.767031,42.1344315 105.297227,41.6220474 105.297227,40.9773736 C105.297227,40.5311344 105.098438,40.1510401 103.822578,39.8038136 L102.397422,39.4070808 C100.873145,38.9939822 100.260234,38.2335208 100.260234,37.2747611 C100.260234,36.1178396 101.187871,35.0432924 103.325469,35.0432924 C104.286602,35.0432924 105.479746,35.2747312 106.192188,35.5556764 C106.274902,36.2003503 106.05957,36.5475767 105.74457,36.5475767 C105.396758,36.5475767 104.51834,36.1508439 103.325469,36.1508439 C102.049473,36.1508439 101.568906,36.6135852 101.568906,37.2251184 C101.568906,37.6219876 101.751426,37.9855798 102.911348,38.3161678 L104.353047,38.7127642 C105.959902,39.1591398 106.606582,39.9194648 106.606582,40.9278672 C106.606582,42.1675721 105.62877,43.2749872 103.342012,43.2749872 L103.342012,43.2749872 Z M98.9671484,42.7294625 C98.2876562,43.0601869 97.4923633,43.2584851 96.6803906,43.2584851 C95.1230273,43.2584851 94.1784375,42.3658703 94.1784375,40.8287181 L94.1784375,33.7518991 C94.1784375,33.4543153 94.3441406,33.2558807 94.857793,33.2558807 C95.0899414,33.2558807 95.3383594,33.3056599 95.4541602,33.3550298 L95.4541602,35.2252249 L98.6194727,35.2252249 C98.6356055,35.3245104 98.6689648,35.5393107 98.6689648,35.7376089 C98.6689648,36.2003503 98.4703125,36.3492785 98.1882617,36.3492785 L95.4541602,36.3492785 L95.4541602,40.729569 C95.4541602,41.6880559 95.9183203,42.1014272 96.8130078,42.1014272 C97.6251172,42.1014272 98.1054102,41.7874778 98.4864453,41.7874778 C98.8512109,41.7874778 99.033457,42.1180657 98.9671484,42.7294625 L98.9671484,42.7294625 Z M92.2054492,36.3491421 C91.2939453,36.3491421 90.001543,36.6467258 89.3552734,38.1010947 L89.3552734,42.6633177 C89.3552734,42.9772671 89.1892969,43.1590632 88.6757813,43.1590632 C88.4437695,43.1590632 88.1952148,43.126059 88.0792773,43.0930547 L88.0792773,35.2252249 C88.1952148,35.1919479 88.4437695,35.1424415 88.6757813,35.1424415 C89.1892969,35.1424415 89.3552734,35.3407397 89.3552734,35.6383234 L89.3552734,36.5969467 C90.0845313,35.5555401 91.3435742,34.9771475 92.8349023,35.2252249 C92.851582,35.3242376 92.8848047,35.5555401 92.8848047,35.7539747 C92.8848047,36.2333545 92.6691992,36.3491421 92.2054492,36.3491421 L92.2054492,36.3491421 Z M82.4319727,43.2584851 C80.0954492,43.2584851 78.3557031,41.5063962 78.3557031,39.1426377 C78.3557031,36.7955177 80.0954492,35.0434288 82.4319727,35.0434288 C84.7682227,35.0434288 86.5082422,36.7955177 86.5082422,39.1426377 C86.5082422,41.5063962 84.7682227,43.2584851 82.4319727,43.2584851 L82.4319727,43.2584851 Z M73.2541797,43.2584851 C72.0280859,43.2584851 71.0504102,42.6965947 70.4705859,41.8699884 L70.4705859,45.3463445 C70.4705859,45.6437918 70.3048828,45.84209 69.7913672,45.84209 C69.559082,45.84209 69.3103906,45.8092222 69.1945898,45.7760815 L69.1945898,35.2252249 C69.3103906,35.1920842 69.559082,35.1424415 69.7913672,35.1424415 C70.3048828,35.1424415 70.4705859,35.3408761 70.4705859,35.6384598 L70.4705859,36.4319255 C71.0504102,35.6053192 72.0280859,35.0434288 73.2541797,35.0434288 C75.2761133,35.0434288 77.0820313,36.5972195 77.0820313,39.1426377 C77.0820313,41.7046944 75.2761133,43.2584851 73.2541797,43.2584851 L73.2541797,43.2584851 Z M64.4411523,43.2749872 C63.397168,43.2749872 62.1377148,43.0271826 61.3756445,42.7295989 C61.2929297,42.0681502 61.5083984,41.7046944 61.8563477,41.7046944 C62.2372461,41.7046944 63.165293,42.1344315 64.4746484,42.1344315 C65.8663086,42.1344315 66.3962305,41.6220474 66.3962305,40.9773736 C66.3962305,40.5311344 66.1975781,40.1510401 64.9214453,39.8038136 L63.4964258,39.4070808 C61.9722852,38.9939822 61.3592383,38.2335208 61.3592383,37.2747611 C61.3592383,36.1178396 62.286875,35.0432924 64.4244727,35.0432924 C65.3857422,35.0432924 66.5788867,35.2747312 67.2910547,35.5556764 C67.374043,36.2003503 67.1585742,36.5475767 66.8438477,36.5475767 C66.4957617,36.5475767 65.6174805,36.1508439 64.4244727,36.1508439 C63.14875,36.1508439 62.6679102,36.6135852 62.6679102,37.2251184 C62.6679102,37.6219876 62.8504297,37.9855798 64.0102148,38.3161678 L65.4519141,38.7127642 C67.0591797,39.1591398 67.7055859,39.9194648 67.7055859,40.9278672 C67.7055859,42.1675721 66.7277734,43.2749872 64.4411523,43.2749872 L64.4411523,43.2749872 Z M57.9661523,47.4768911 L30.7423047,47.4768911 C30.1907813,47.4768911 29.742207,47.0292881 29.742207,46.4789901 L29.742207,31.8064216 C29.742207,31.25626 30.1907813,30.808657 30.7423047,30.808657 L57.9661523,30.808657 L57.9661523,47.4768911 Z M109.257695,30.4806602 L30.7423047,30.4806602 C30.0093555,30.4806602 29.4132617,31.0751458 29.4132617,31.8064216 L29.4132617,46.4789901 C29.4132617,47.210266 30.0093555,47.8048879 30.7423047,47.8048879 L109.257695,47.8048879 C109.990645,47.8048879 110.586738,47.210266 110.586738,46.4789901 L110.586738,31.8064216 C110.586738,31.0751458 109.990645,30.4806602 109.257695,30.4806602 L109.257695,30.4806602 Z" id="Fill-12" fill="#FEFEFE"></path>
                <path d="M73.0222363,36.1838345 C71.928623,36.1838345 70.9178613,36.8120062 70.4706543,37.7211231 L70.4706543,40.5972656 C70.9178613,41.5063825 71.928623,42.1344178 73.0222363,42.1344178 C74.5968262,42.1344178 75.7728809,40.9278536 75.7728809,39.142624 C75.7728809,37.3905351 74.5968262,36.1838345 73.0222363,36.1838345" id="Fill-14" fill="#FEFEFE"></path>
                <path d="M82.4319316,36.1838345 C80.9073809,36.1838345 79.6648809,37.3243902 79.6648809,39.142624 C79.6648809,40.97736 80.9073809,42.1344178 82.4319316,42.1344178 C83.9563457,42.1344178 85.1992559,40.97736 85.1992559,39.142624 C85.1992559,37.3243902 83.9563457,36.1838345 82.4319316,36.1838345" id="Fill-16" fill="#FEFEFE"></path>
                <path d="M35.4359277,39.9019535 L37.1115527,40.2235403 C37.7240527,40.340419 38.0428809,40.4789822 38.0428809,40.8122978 C38.0428809,41.0659668 37.8018457,41.333683 37.0137988,41.333683 C36.2956152,41.333683 35.3309277,41.2278513 34.7185645,41.2278513 C34.1295801,41.2278513 33.4997168,41.4928399 33.4997168,42.6542619 C33.4997168,42.7945982 33.5251465,42.9728484 33.557959,43.1160486 C34.4376074,43.217107 36.2915137,43.3783096 37.5716113,43.241792 C39.3381543,43.0497673 40.2083691,42.0799608 40.2083691,40.7525629 C40.2083691,39.6050517 39.5031738,38.6724772 37.857627,38.3699838 L36.2554199,38.0733547 C35.7436816,37.9841614 35.420752,37.8642824 35.420752,37.5748815 C35.420752,37.2998007 35.7598145,37.074499 36.5771191,37.074499 C37.3797949,37.074499 38.0828027,37.158919 38.5365723,37.158919 C39.126377,37.158919 39.7386035,36.9090687 39.7386035,35.7513289 C39.7386035,35.5954452 39.7220605,35.4538815 39.6895215,35.3038622 C38.8145215,35.1966666 37.2201074,35.0372371 35.9103418,35.1786643 C34.1772949,35.3700071 33.2962793,36.4096408 33.2962793,37.651255 C33.2962793,38.6724772 34.0408496,39.6354647 35.4359277,39.9019535" id="Fill-18" fill="#FEFEFE"></path>
                <path d="M43.0837695,42.1778143 L43.0837695,32.4066488 C42.9173828,32.3718716 42.7386914,32.3535965 42.5619141,32.3535965 C41.1542578,32.3535965 40.9095313,33.1020564 40.9095313,33.819285 L40.9095313,43.2649086 C41.0642969,43.2871388 41.2257617,43.3005041 41.4104688,43.3005041 C42.8034961,43.3005041 43.0837695,42.8901332 43.0837695,42.1778143" id="Fill-20" fill="#FEFEFE"></path>
                <path d="M47.1186953,43.3165426 C47.6766445,43.3165426 48.1409414,43.1899808 48.3557266,43.0875586 L45.7601211,39.1825564 L47.5996719,37.2381701 L50.6176016,41.9626867 L48.7792813,45.8318205 C48.9615273,45.9251052 49.3372305,46.0377561 49.809457,46.0508487 C50.6176016,46.0683055 51.0593398,45.7587202 51.3865078,45.0359 L55.7276016,35.3765671 C55.5486367,35.2804183 55.1522891,35.1737682 54.8270352,35.1661309 C54.2693594,35.1563115 53.5204141,35.2700534 53.0410781,36.4095181 L51.6353359,39.7193527 L48.8784023,35.2396404 C48.700668,35.1852243 48.2665859,35.1073506 47.9477578,35.1073506 C46.9762344,35.1073506 46.4312734,35.4654876 45.8668984,36.0762025 L43.1865273,39.0004876 L45.3424453,42.3854683 C45.740707,43.002184 46.2659805,43.3165426 47.1186953,43.3165426" id="Fill-22" fill="#FEFEFE"></path>
            </g>
        </g>
    </g>
</svg>